<?xml version="1.0" encoding="UTF-8" standalone="no"?>
<svg
   xmlns:dc="http://purl.org/dc/elements/1.1/"
   xmlns:cc="http://creativecommons.org/ns#"
   xmlns:rdf="http://www.w3.org/1999/02/22-rdf-syntax-ns#"
   xmlns:svg="http://www.w3.org/2000/svg"
   xmlns="http://www.w3.org/2000/svg"
   xmlns:sodipodi="http://sodipodi.sourceforge.net/DTD/sodipodi-0.dtd"
   xmlns:inkscape="http://www.inkscape.org/namespaces/inkscape"
   stroke-miterlimit="10"
   font-weight="normal"
   font-style="normal"
   font-size="12"
   id="svg2"
   version="1.1"
   inkscape:version="0.91 r13725"
   sodipodi:docname="delete.svg"
   width="275.625"
   height="274.5"
   style="font-style:normal;font-weight:normal;font-size:12px;font-family:Dialog;color-interpolation:auto;fill:#000000;fill-opacity:1;stroke:#000000;stroke-width:1;stroke-linecap:square;stroke-linejoin:miter;stroke-miterlimit:10;stroke-dasharray:none;stroke-dashoffset:0;stroke-opacity:1;color-rendering:auto;image-rendering:auto;shape-rendering:auto;text-rendering:auto">
  <metadata
     id="metadata13">
    <rdf:RDF>
      <cc:Work
         rdf:about="">
        <dc:format>image/svg+xml</dc:format>
        <dc:type
           rdf:resource="http://purl.org/dc/dcmitype/StillImage" />
        <dc:title></dc:title>
      </cc:Work>
    </rdf:RDF>
  </metadata>
  <sodipodi:namedview
     pagecolor="#ffffff"
     bordercolor="#666666"
     borderopacity="1"
     objecttolerance="10"
     gridtolerance="10"
     guidetolerance="10"
     inkscape:pageopacity="0"
     inkscape:pageshadow="2"
     inkscape:window-width="640"
     inkscape:window-height="480"
     id="namedview11"
     showgrid="false"
     fit-margin-top="0"
     fit-margin-left="0"
     fit-margin-right="0"
     fit-margin-bottom="0"
     inkscape:zoom="2.36"
     inkscape:cx="43.25"
     inkscape:cy="240.17712"
     inkscape:window-x="0"
     inkscape:window-y="0"
     inkscape:window-maximized="0"
     inkscape:current-layer="svg2" />
  <!--Unicode Character 'BLACK UNIVERSAL RECYCLING SYMBOL' (U+267B)-->
  <defs
     id="genericDefs" />
  <g
     id="g5"
     transform="translate(-6.75,-129.9375)"
     style="fill:#ffffff">
    <g
       id="g7"
       style="fill:#ffffff">
      <path
         d="m 194.625,404.4375 -38.25,-60.75 36,-66.9375 5.0625,0 0,29.25 64.6875,0.5625 5.0625,-2.8125 2.8125,-2.8125 2.25,-4.5 -2.8125,-0.5625 -6.1875,2.8125 -9,1.6875 -14.0625,0 -10.6875,-2.25 -4.5,-6.1875 -29.8125,-52.3125 53.4375,-33.1875 24.75,39.9375 6.75,16.3125 2.25,11.25 L 280.6875,288 279,298.125 l -36,62.4375 -6.75,7.3125 -10.125,4.5 -25.3125,0.5625 -1.6875,31.5 -4.5,0 z M 150.75,369.5625 95.0625,367.875 83.25,363.9375 l -14.0625,-9 -24.75,-30.375 -18,-30.375 L 18.5625,276.75 18,270 l 0.5625,-4.5 3.375,-9 7.3125,-12.375 3.9375,-6.1875 L 6.75,225 l 0.5625,-5.625 72,-1.6875 38.25,63.5625 -3.375,3.375 -22.5,-14.0625 -30.9375,51.1875 -1.125,5.625 1.6875,4.5 3.9375,3.9375 1.125,-3.375 0.5625,-6.1875 1.6875,-7.875 6.75,-10.125 4.5,-4.5 70.875,-0.5625 0,66.375 z m -35.4375,-137.25 -51.75,-29.8125 -1.125,-2.8125 24.1875,-43.875 8.4375,-10.6875 8.4375,-6.1875 8.4375,-2.8125 10.125,-3.9375 21.9375,-2.25 59.625,0.5625 7.875,1.6875 10.6875,9.5625 5.0625,9 3.9375,9.5625 6.1875,-1.125 9.5625,-5.625 10.125,-7.3125 2.8125,3.375 -31.5,63.5625 -75.9375,1.6875 0.5625,-5.625 21.375,-13.5 -21.9375,-40.5 -7.3125,-11.25 -6.1875,-5.0625 -3.375,-0.5625 -2.25,2.8125 9,7.875 5.0625,8.4375 5.0625,14.0625 -1.6875,5.0625 -32.0625,55.125 -3.375,0.5625 z"
         id="path9"
         inkscape:connector-curvature="0"
         style="stroke:none;fill:#ffffff" />
    </g>
  </g>
</svg>
