<?xml version="1.0" encoding="UTF-8" standalone="no"?>
<svg
   xmlns:dc="http://purl.org/dc/elements/1.1/"
   xmlns:cc="http://creativecommons.org/ns#"
   xmlns:rdf="http://www.w3.org/1999/02/22-rdf-syntax-ns#"
   xmlns:svg="http://www.w3.org/2000/svg"
   xmlns="http://www.w3.org/2000/svg"
   xmlns:sodipodi="http://sodipodi.sourceforge.net/DTD/sodipodi-0.dtd"
   xmlns:inkscape="http://www.inkscape.org/namespaces/inkscape"
   stroke-miterlimit="10"
   font-weight="normal"
   font-style="normal"
   font-size="12"
   id="svg2"
   version="1.1"
   inkscape:version="0.91 r13725"
   sodipodi:docname="vol+.svg"
   width="238.64059"
   height="240.8907"
   style="font-style:normal;font-weight:normal;font-size:12px;font-family:Dialog;color-interpolation:auto;fill:#000000;fill-opacity:1;stroke:#000000;stroke-width:1;stroke-linecap:square;stroke-linejoin:miter;stroke-miterlimit:10;stroke-dasharray:none;stroke-dashoffset:0;stroke-opacity:1;color-rendering:auto;image-rendering:auto;shape-rendering:auto;text-rendering:auto">
  <metadata
     id="metadata13">
    <rdf:RDF>
      <cc:Work
         rdf:about="">
        <dc:format>image/svg+xml</dc:format>
        <dc:type
           rdf:resource="http://purl.org/dc/dcmitype/StillImage" />
        <dc:title></dc:title>
      </cc:Work>
    </rdf:RDF>
  </metadata>
  <sodipodi:namedview
     pagecolor="#ffffff"
     bordercolor="#666666"
     borderopacity="1"
     objecttolerance="10"
     gridtolerance="10"
     guidetolerance="10"
     inkscape:pageopacity="0"
     inkscape:pageshadow="2"
     inkscape:window-width="640"
     inkscape:window-height="480"
     id="namedview11"
     showgrid="false"
     fit-margin-top="0"
     fit-margin-left="0"
     fit-margin-right="0"
     fit-margin-bottom="0"
     inkscape:zoom="2.36"
     inkscape:cx="21.875"
     inkscape:cy="269.2188"
     inkscape:window-x="0"
     inkscape:window-y="0"
     inkscape:window-maximized="0"
     inkscape:current-layer="svg2" />
  <!--Unicode Character 'SPEAKER WITH THREE SOUND WAVES' (U+1F50A)-->
  <defs
     id="genericDefs" />
  <g
     id="g5"
     style="fill:#999999"
     transform="translate(-28.125,-78.3281)">
    <g
       id="g7"
       style="fill:#999999">
      <path
         d="m 266.7656,198.7031 q 0,64.8281 -43.875,120.5157 l -10.2656,-8.0157 q 41.2031,-50.9062 41.2031,-112.5 0,-60.1875 -41.0625,-112.3593 l 10.2656,-8.0157 q 43.7344,55.5469 43.7344,120.375 z m -30.9375,0 q 0,53.8594 -36.2812,101.25 l -10.2657,-7.7343 q 33.6094,-43.875 33.6094,-93.5157 0,-49.3593 -33.6094,-93.375 l 10.2657,-7.7343 q 36.2812,46.5468 36.2812,101.1093 z m -30.9375,0 q 0,42.6094 -28.8281,81.9844 l -10.4063,-7.5937 q 26.2969,-35.2969 26.2969,-74.3907 0,-38.3906 -26.2969,-74.3906 l 10.4063,-7.5937 q 28.8281,39.5156 28.8281,81.9843 z m -68.7656,102.375 -66.2344,-61.1719 -41.7656,0 0,-82.4062 41.9062,0 66.0938,-61.0312 0,204.6093 z"
         id="path9"
         style="fill:#999999;stroke:none"
         inkscape:connector-curvature="0" />
    </g>
  </g>
</svg>
